<?xml version="1.0" encoding="UTF-8"?>
<svg version="1.1" xmlns="http://www.w3.org/2000/svg" width="500" height="500">
<path d="M0 0 C1.15798096 -0.00571014 2.31596191 -0.01142029 3.5090332 -0.01730347 C4.77562775 -0.01842133 6.04222229 -0.01953918 7.34719849 -0.02069092 C8.69764338 -0.02532139 10.04808697 -0.03034637 11.39852905 -0.03573608 C15.06386693 -0.04883852 18.7291865 -0.05530063 22.39454412 -0.05974674 C24.68547784 -0.06268048 26.97640659 -0.06678582 29.2673378 -0.07125092 C36.4380964 -0.08491912 43.6088436 -0.09458953 50.77961433 -0.09845281 C59.05204025 -0.1029344 67.32430101 -0.12048977 75.59667671 -0.1494534 C81.9951031 -0.17107706 88.39348304 -0.18115742 94.79194558 -0.18249393 C98.61175715 -0.18354131 102.43141332 -0.18943506 106.25118637 -0.20731354 C109.84469721 -0.22380654 113.43793602 -0.22594393 117.03147125 -0.21717453 C118.97453287 -0.21603859 120.91758551 -0.2297458 122.8605957 -0.243927 C129.94988347 -0.20999728 134.99916827 0.04981773 140.40237427 5.07794189 C140.97342896 5.75856689 141.54448364 6.43919189 142.13284302 7.14044189 C142.71678833 7.82106689 143.30073364 8.50169189 143.90237427 9.20294189 C146.67993478 12.99817609 146.4500621 16.46583604 146.46078491 21.02185059 C146.46375603 21.72592946 146.46672716 22.43000833 146.46978831 23.15542293 C146.47847709 25.5205584 146.47998372 27.88564327 146.48147583 30.25079346 C146.48610392 31.94429126 146.49112857 33.63778802 146.496521 35.33128357 C146.50964884 39.93680055 146.51609083 44.54230296 146.52053165 49.14783573 C146.52346207 52.02522287 146.52756684 54.90260602 146.53203583 57.77999115 C146.54571244 66.78268962 146.55537801 75.78537899 146.55923772 84.78808713 C146.5637175 95.18011751 146.58126101 105.5720163 146.61023831 115.96400666 C146.63185835 123.99638458 146.64194219 132.02872549 146.64327884 140.06113219 C146.64432673 144.85851711 146.65023118 149.65577835 146.66809845 154.45313263 C146.68458442 158.96752699 146.68673208 163.4817048 146.67795944 167.99611855 C146.67718932 169.65089562 146.68152852 171.30568435 146.69141769 172.96043205 C146.70415071 175.2242443 146.69825359 177.48729111 146.68783569 179.75109863 C146.68930225 181.01651112 146.69076881 182.2819236 146.69227982 183.58568192 C146.13301259 188.93083939 144.41957446 193.82293044 140.25784302 197.45294189 C132.98044928 202.98737241 123.37708004 202.42430904 114.62503052 202.33575439 C113.55157379 202.3329245 112.47811707 202.3300946 111.37213135 202.32717896 C107.97974997 202.31608011 104.58764315 202.29099504 101.19534302 202.26544189 C98.88024269 202.25539878 96.56513819 202.24627527 94.25003052 202.23809814 C88.60670937 202.21617462 82.96354582 202.18280121 77.32034302 202.14044189 C77.13133423 203.28424316 76.94232544 204.42804443 76.74758911 205.60650635 C76.48827873 207.13479493 76.22865937 208.66303112 75.96878052 210.19122314 C75.84559448 210.94182007 75.72240845 211.69241699 75.5954895 212.46575928 C74.03296765 221.56732582 71.58948098 231.93508022 64.32034302 238.14044189 C60.61851005 238.92806593 58.74174394 238.31244227 55.25784302 236.89044189 C47.61029655 231.18481167 45.95266527 217.90865939 44.32034302 209.14044189 C43.98180918 206.80785741 43.64785932 204.47459884 43.32034302 202.14044189 C42.74120148 202.14932434 42.16205994 202.15820679 41.56536865 202.1673584 C35.49762923 202.25635716 29.43007743 202.31639245 23.36184692 202.36016846 C21.10200459 202.38019279 18.84221347 202.40742051 16.58255005 202.44219971 C13.3205394 202.49112267 10.05921814 202.51350322 6.79690552 202.53106689 C5.29941269 202.56203461 5.29941269 202.56203461 3.77166748 202.59362793 C-3.58137118 202.59594144 -10.88224982 201.53606295 -16.55474854 196.46374512 C-24.11695603 187.3964815 -22.96568634 175.33130937 -22.91012573 164.17950439 C-22.90947792 162.58394381 -22.90963268 160.98838273 -22.91052246 159.39282227 C-22.90988796 155.08143683 -22.89587303 150.77019924 -22.87790298 146.45885468 C-22.86713221 143.75923379 -22.85906733 141.05961798 -22.85186768 138.35998535 C-22.82344429 127.91621961 -22.7773212 117.47263114 -22.72157192 107.02897835 C-22.68584945 100.08110955 -22.66602447 93.1333097 -22.65328979 86.18536377 C-22.63682878 77.4257031 -22.60138579 68.66635746 -22.54274845 59.9068737 C-22.51188889 55.26065276 -22.48866386 50.61471269 -22.48492432 45.96838379 C-22.48074195 41.59629561 -22.45263933 37.22499658 -22.40641403 32.85315704 C-22.39345736 31.25094429 -22.38887437 29.6486377 -22.39345169 28.04637909 C-22.42910381 12.0845071 -22.42910381 12.0845071 -16.67965698 6.14044189 C-11.27006609 1.45970513 -7.18386089 0.02123832 0 0 Z M-4.67965698 27.14044189 C-4.67965698 59.48044189 -4.67965698 91.82044189 -4.67965698 125.14044189 C8.40165739 127.73874279 8.40165739 127.73874279 21.33157349 128.49688721 C22.20542191 128.49893158 23.07927032 128.50097595 23.979599 128.50308228 C26.79914 128.50603183 29.61806147 128.48779589 32.43753052 128.46856689 C34.43094743 128.46549952 36.42436651 128.46363085 38.41778564 128.46289062 C42.56442672 128.45832455 46.71086959 128.44403869 50.85745239 128.42169189 C56.14941136 128.39330145 61.44121601 128.38246435 66.73324394 128.3780098 C71.82219224 128.37283805 76.9111027 128.35832684 82.00003052 128.34356689 C82.95677547 128.34168617 83.91352043 128.33980545 84.89925766 128.33786774 C87.62804962 128.33093084 90.3567257 128.31726735 93.08547974 128.30157471 C93.87530746 128.30045685 94.66513519 128.29933899 95.47889709 128.29818726 C103.94023313 128.23430431 111.65995134 127.97063773 119.32034302 124.14044189 C118.30877042 122.53537734 118.30877042 122.53537734 116.32034302 121.14044189 C110.17679486 120.13727243 104.03361061 119.88112801 97.82034302 119.64044189 C87.79836645 119.25221612 87.79836645 119.25221612 83.35549927 118.60919189 C78.32960485 117.92574113 73.31972918 118.07762293 68.25784302 118.14044189 C56.2539568 118.22291707 44.30547574 117.77622207 32.32034302 117.14044189 C32.65034302 116.48044189 32.98034302 115.82044189 33.32034302 115.14044189 C35.57815552 114.54278564 35.57815552 114.54278564 38.44534302 114.07794189 C39.44307739 113.91294189 40.44081177 113.74794189 41.46878052 113.57794189 C45.91372391 112.89597798 50.35805047 112.26072846 54.82034302 111.70294189 C58.31519853 111.22426603 58.31519853 111.22426603 61.57034302 110.14044189 C65.74712582 109.02663315 69.65964635 108.76593375 73.96487427 108.58184814 C75.1308313 108.36335205 75.1308313 108.36335205 76.32034302 108.14044189 C77.31034302 106.65544189 77.31034302 106.65544189 78.32034302 105.14044189 C74.04390823 100.45695466 74.04390823 100.45695466 68.32034302 98.14044189 C65.96609501 98.7290039 63.63063387 99.39784841 61.32034302 100.14044189 C56.94077393 100.66181917 54.97294593 99.48854377 51.32034302 97.14044189 C50.09956919 96.60022961 48.86983405 96.07990927 47.63284302 95.57794189 C44.32034302 94.14044189 44.32034302 94.14044189 42.32034302 92.14044189 C38.78832689 91.93667173 35.61787382 92.08793646 32.13284302 92.70294189 C29.35787998 93.13460281 27.95357961 92.9016559 25.32034302 92.14044189 C24.80908056 89.5171786 24.30912002 86.89292702 23.82034302 84.26544189 C23.67363159 83.48765381 23.52692017 82.70986572 23.37576294 81.9085083 C22.61398517 77.63988768 22.23467218 73.86157786 22.63284302 69.51544189 C22.76165805 66.48571239 22.62465471 65.51700025 20.69143677 63.12481689 C18.64201895 61.32827383 16.53664401 59.72412057 14.32034302 58.14044189 C8.57226119 52.846156 7.71479587 47.57371444 6.55276489 40.07208252 C5.8400625 35.87068222 5.07031506 32.46251214 2.32034302 29.14044189 C1.00034302 29.14044189 -0.31965698 29.14044189 -1.67965698 29.14044189 C-2.00965698 41.02044189 -2.33965698 52.90044189 -2.67965698 65.14044189 C-3.00965698 52.60044189 -3.33965698 40.06044189 -3.67965698 27.14044189 C-4.00965698 27.14044189 -4.33965698 27.14044189 -4.67965698 27.14044189 Z M124.32034302 100.14044189 C124.32034302 104.10044189 124.32034302 108.06044189 124.32034302 112.14044189 C124.65034302 112.14044189 124.98034302 112.14044189 125.32034302 112.14044189 C125.32034302 108.18044189 125.32034302 104.22044189 125.32034302 100.14044189 C124.99034302 100.14044189 124.66034302 100.14044189 124.32034302 100.14044189 Z M-2.67965698 150.14044189 C-5.04553414 153.41682329 -5.0088412 156.61487714 -5.05465698 160.57794189 C-5.09719604 162.2466333 -5.09719604 162.2466333 -5.14059448 163.94903564 C-4.57602832 167.85793867 -3.5005792 169.41098302 -0.67965698 172.14044189 C5.3201746 175.13252841 11.64071996 174.46967995 18.19534302 174.45294189 C19.44960083 174.46905518 20.70385864 174.48516846 21.99612427 174.50177002 C31.08143594 174.51042151 31.08143594 174.51042151 39.32034302 171.14044189 C42.97750207 166.30355412 43.0426017 160.97707286 42.32034302 155.14044189 C40.71361697 151.36463568 38.83458553 149.2234147 35.32034302 147.14044189 C32.7580811 146.84825252 30.44592286 146.71933338 27.88674927 146.74200439 C27.17179794 146.73913422 26.45684662 146.73626404 25.7202301 146.73330688 C24.21151943 146.73126996 22.70278212 146.73677389 21.19412231 146.74932861 C18.89379299 146.76536556 16.59522673 146.74948126 14.29495239 146.73028564 C12.8255475 146.73226861 11.35614369 146.73611338 9.88674927 146.74200439 C9.2032692 146.7359317 8.51978912 146.72985901 7.81559753 146.72360229 C3.48602434 146.78684412 0.78513172 147.53211782 -2.67965698 150.14044189 Z M77.32034302 152.14044189 C75.50368954 157.59040233 75.69408412 163.11431017 77.38284302 168.57794189 C79.8804553 171.88123555 82.40523193 173.10665061 86.32034302 174.14044189 C90.49470594 174.54248766 94.63008808 174.51420293 98.82034302 174.45294189 C99.92249146 174.45616455 101.02463989 174.45938721 102.16018677 174.46270752 C112.20957998 174.60101919 112.20957998 174.60101919 120.73831177 169.96466064 C122.73437967 166.4013098 122.75695781 164.01449139 122.63284302 159.95294189 C122.60835083 158.72188721 122.58385864 157.49083252 122.55862427 156.22247314 C122.52202245 153.2296859 122.52202245 153.2296859 121.32034302 151.14044189 C120.66034302 151.14044189 120.00034302 151.14044189 119.32034302 151.14044189 C118.82534302 149.65544189 118.82534302 149.65544189 118.32034302 148.14044189 C113.84542956 145.90298517 107.36755062 146.8292441 102.39993286 146.79034424 C100.85388094 146.77381759 99.3079044 146.74657045 97.76223755 146.70831299 C95.52599719 146.65328032 93.29154617 146.63163094 91.05471802 146.61700439 C90.37012512 146.59433502 89.68553223 146.57166565 88.98019409 146.54830933 C83.3685882 146.57277226 81.08182802 148.26857632 77.32034302 152.14044189 Z " fill="#1F3653" transform="translate(198.67965698242188,74.85955810546875)"/>
<path d="M0 0 C1.05997192 -0.00845947 2.11994385 -0.01691895 3.21203613 -0.02563477 C4.37473022 -0.01956207 5.53742432 -0.01348938 6.73535156 -0.00723267 C7.95992065 -0.01248962 9.18448975 -0.01774658 10.44616699 -0.02316284 C13.80578243 -0.03411571 17.1648447 -0.03153262 20.52442932 -0.02202559 C24.03842926 -0.0144359 27.55240539 -0.02147267 31.06640625 -0.02618408 C36.96781666 -0.03164367 42.86911449 -0.02444477 48.77050781 -0.01016235 C55.59556984 0.00616465 62.42036303 0.00087627 69.24541855 -0.01564157 C75.1028257 -0.02925073 80.96015188 -0.03117892 86.81756973 -0.02332556 C90.31702329 -0.01864587 93.81635044 -0.01803221 97.3157959 -0.02793503 C101.21617096 -0.03820121 105.11624432 -0.02397653 109.01660156 -0.00723267 C110.17929565 -0.01330536 111.34198975 -0.01937805 112.53991699 -0.02563477 C114.12987488 -0.01294556 114.12987488 -0.01294556 115.75195312 0 C117.13571136 0.00169662 117.13571136 0.00169662 118.54742432 0.00342751 C120.87597656 0.38095093 120.87597656 0.38095093 122.67241859 1.63433647 C124.17791071 3.81912055 124.253034 5.06527997 124.25692749 7.70773315 C124.26538696 8.59100784 124.27384644 9.47428253 124.28256226 10.38432312 C124.27345322 11.83381599 124.27345322 11.83381599 124.26416016 13.31259155 C124.27204559 14.84220772 124.27204559 14.84220772 124.28009033 16.40272522 C124.29331828 19.78103857 124.28454214 23.15888259 124.27441406 26.53720093 C124.27643399 28.87985322 124.27934474 31.2225049 124.28311157 33.56515503 C124.28753872 38.47793558 124.28109115 43.39055264 124.26708984 48.30331421 C124.24999792 54.60870629 124.25983699 60.91371531 124.27780724 67.21909332 C124.28863441 72.05743306 124.2852036 76.8956816 124.27742386 81.73402405 C124.27541891 84.05931137 124.27789142 86.38460691 124.28486252 88.70988464 C124.2924593 91.95658382 124.28089721 95.20265783 124.26416016 98.4493103 C124.27023285 99.41563889 124.27630554 100.38196747 124.28256226 101.37757874 C124.26987305 102.70249077 124.26987305 102.70249077 124.25692749 104.0541687 C124.25579641 104.82181297 124.25466534 105.58945724 124.25349998 106.38036346 C123.75864976 109.00269388 123.05916115 109.85773339 120.87597656 111.38095093 C118.54742432 111.75847435 118.54742432 111.75847435 115.75195312 111.76190186 C114.6919812 111.77036133 113.63200928 111.7788208 112.53991699 111.78753662 C111.3772229 111.78146393 110.21452881 111.77539124 109.01660156 111.76913452 C107.79203247 111.77439148 106.56746338 111.77964844 105.30578613 111.7850647 C101.9461707 111.79601757 98.58710842 111.79343447 95.2275238 111.78392744 C91.71352386 111.77633775 88.19954773 111.78337452 84.68554688 111.78808594 C78.78413646 111.79354552 72.88283864 111.78634663 66.98144531 111.77206421 C60.15638328 111.75573721 53.33159009 111.76102558 46.50653458 111.77754343 C40.64912742 111.79115258 34.79180125 111.79308078 28.93438339 111.78522742 C25.43492984 111.78054772 21.93560269 111.77993407 18.43615723 111.78983688 C14.53578216 111.80010307 10.63570881 111.78587838 6.73535156 111.76913452 C5.57265747 111.77520721 4.40996338 111.78127991 3.21203613 111.78753662 C1.62207825 111.77484741 1.62207825 111.77484741 0 111.76190186 C-0.92250549 111.76077078 -1.84501099 111.7596397 -2.79547119 111.75847435 C-5.12402344 111.38095093 -5.12402344 111.38095093 -6.92046547 110.12756538 C-8.42595758 107.9427813 -8.50108087 106.69662188 -8.50497437 104.0541687 C-8.51343384 103.17089401 -8.52189331 102.28761932 -8.53060913 101.37757874 C-8.52453644 100.41125015 -8.51846375 99.44492157 -8.51220703 98.4493103 C-8.51746399 97.42956619 -8.52272095 96.40982208 -8.52813721 95.35917664 C-8.54136516 91.98086328 -8.53258901 88.60301926 -8.52246094 85.22470093 C-8.52448086 82.88204864 -8.52739162 80.53939696 -8.53115845 78.19674683 C-8.5355856 73.28396628 -8.52913802 68.37134922 -8.51513672 63.45858765 C-8.4980448 57.15319557 -8.50788387 50.84818655 -8.52585411 44.54280853 C-8.53668128 39.70446879 -8.53325048 34.86622026 -8.52547073 30.02787781 C-8.52346578 27.70259048 -8.52593829 25.37729495 -8.53290939 23.05201721 C-8.54050617 19.80531803 -8.52894409 16.55924403 -8.51220703 13.31259155 C-8.51827972 12.34626297 -8.52435242 11.37993439 -8.53060913 10.38432312 C-8.52214966 9.50104843 -8.51369019 8.61777374 -8.50497437 7.70773315 C-8.50384329 6.94008888 -8.50271221 6.17244461 -8.50154686 5.38153839 C-7.58187545 0.5079783 -4.46507397 0.00547459 0 0 Z M-7.12402344 9.38095093 C-7.12402344 41.72095093 -7.12402344 74.06095093 -7.12402344 107.38095093 C5.95729094 109.97925182 5.95729094 109.97925182 18.88720703 110.73739624 C19.76105545 110.73944061 20.63490387 110.74148499 21.53523254 110.74359131 C24.35477354 110.74654086 27.17369501 110.72830492 29.99316406 110.70907593 C31.98658098 110.70600855 33.98000005 110.70413989 35.97341919 110.70339966 C40.12006027 110.69883358 44.26650314 110.68454773 48.41308594 110.66220093 C53.70504491 110.63381048 58.99684955 110.62297338 64.28887749 110.61851883 C69.37782579 110.61334709 74.46673624 110.59883587 79.55566406 110.58407593 C80.51240902 110.58219521 81.46915398 110.58031448 82.4548912 110.57837677 C85.18368317 110.57143987 87.91235925 110.55777639 90.64111328 110.54208374 C91.43094101 110.54096588 92.22076874 110.53984802 93.03453064 110.53869629 C101.49586668 110.47481334 109.21558489 110.21114676 116.87597656 106.38095093 C115.86440397 104.77588637 115.86440397 104.77588637 113.87597656 103.38095093 C107.73242841 102.37778147 101.58924416 102.12163705 95.37597656 101.88095093 C85.35399999 101.49272515 85.35399999 101.49272515 80.91113281 100.84970093 C75.8852384 100.16625016 70.87536272 100.31813196 65.81347656 100.38095093 C53.80959035 100.4634261 41.86110928 100.01673111 29.87597656 99.38095093 C30.20597656 98.72095093 30.53597656 98.06095093 30.87597656 97.38095093 C33.13378906 96.78329468 33.13378906 96.78329468 36.00097656 96.31845093 C36.99871094 96.15345093 37.99644531 95.98845093 39.02441406 95.81845093 C43.46935746 95.13648701 47.91368402 94.5012375 52.37597656 93.94345093 C55.87083207 93.46477506 55.87083207 93.46477506 59.12597656 92.38095093 C63.30275937 91.26714218 67.2152799 91.00644279 71.52050781 90.82235718 C72.68646484 90.60386108 72.68646484 90.60386108 73.87597656 90.38095093 C74.86597656 88.89595093 74.86597656 88.89595093 75.87597656 87.38095093 C71.59954177 82.69746369 71.59954177 82.69746369 65.87597656 80.38095093 C63.52172856 80.96951293 61.18626741 81.63835744 58.87597656 82.38095093 C54.49640747 82.9023282 52.52857948 81.7290528 48.87597656 79.38095093 C47.65520273 78.84073865 46.42546759 78.3204183 45.18847656 77.81845093 C41.87597656 76.38095093 41.87597656 76.38095093 39.87597656 74.38095093 C36.34396043 74.17718077 33.17350736 74.32844549 29.68847656 74.94345093 C26.91351352 75.37511185 25.50921316 75.14216493 22.87597656 74.38095093 C22.36471411 71.75768763 21.86475356 69.13343605 21.37597656 66.50595093 C21.22926514 65.72816284 21.08255371 64.95037476 20.93139648 64.14901733 C20.16961871 59.88039671 19.79030572 56.10208689 20.18847656 51.75595093 C20.31729159 48.72622142 20.18028825 47.75750928 18.24707031 45.36532593 C16.19765249 43.56878287 14.09227755 41.9646296 11.87597656 40.38095093 C6.12789474 35.08666503 5.27042941 29.81422347 4.10839844 22.31259155 C3.39569604 18.11119125 2.62594861 14.70302118 -0.12402344 11.38095093 C-1.44402344 11.38095093 -2.76402344 11.38095093 -4.12402344 11.38095093 C-4.45402344 23.26095093 -4.78402344 35.14095093 -5.12402344 47.38095093 C-5.45402344 34.84095093 -5.78402344 22.30095093 -6.12402344 9.38095093 C-6.45402344 9.38095093 -6.78402344 9.38095093 -7.12402344 9.38095093 Z M121.87597656 82.38095093 C121.87597656 86.34095093 121.87597656 90.30095093 121.87597656 94.38095093 C122.20597656 94.38095093 122.53597656 94.38095093 122.87597656 94.38095093 C122.87597656 90.42095093 122.87597656 86.46095093 122.87597656 82.38095093 C122.54597656 82.38095093 122.21597656 82.38095093 121.87597656 82.38095093 Z " fill="#F7F7F8" transform="translate(201.1240234375,92.61904907226563)"/>
<path d="M0 0 C0.66 0 1.32 0 2 0 C2.36351562 0.70125 2.72703125 1.4025 3.1015625 2.125 C5.57201699 6.78719104 7.94972846 11.09622823 11.375 15.125 C14.14798206 18.68609275 14.7897314 21.40304162 14.45703125 25.890625 C13.49830106 30.31553356 11.17083177 32.99642991 7.8125 35.875 C3.77324458 37.49070217 0.27811376 37.91986746 -4 37 C-7.92286857 34.68127843 -10.54911161 32.35266518 -12 28 C-12.70769957 23.54470954 -12.96741213 19.63233766 -10.61328125 15.66015625 C-9.40225086 14.16541375 -8.16035008 12.69521554 -6.890625 11.25 C-4.0109103 7.82290152 -2.03553813 3.96789229 0 0 Z " fill="#1B304C" transform="translate(257,132)"/>
<path d="M0 0 C2.4694705 3.70420575 2.26041271 5.57019783 2.28088379 9.99530029 C2.28682603 10.71162982 2.29276828 11.42795935 2.29889059 12.16599584 C2.31627017 14.57262498 2.31928145 16.97905522 2.32226562 19.38574219 C2.33152169 21.1087995 2.34157097 22.8318527 2.35235596 24.55490112 C2.37861279 29.24099287 2.39149575 33.92702729 2.40037727 38.61318111 C2.40623789 41.54082703 2.41444738 44.46845725 2.42338562 47.39609528 C2.4507391 56.55577038 2.47007011 65.71540966 2.4777894 74.87512279 C2.48674931 85.44900246 2.52183674 96.02236484 2.57979059 106.59608722 C2.62302854 114.7685994 2.6431982 122.94096608 2.64587164 131.11359143 C2.64796764 135.99496413 2.65977914 140.87585069 2.69551086 145.75710297 C2.72848048 150.35048444 2.73278087 154.94301466 2.71523285 159.53647232 C2.71369239 161.22029272 2.72237439 162.90415894 2.74214935 164.58786392 C2.90027601 178.89283579 2.90027601 178.89283579 -0.86096191 183.43927002 C-8.77441853 190.72508824 -18.31257467 190.14793806 -28.40234375 190.09765625 C-29.48004532 190.0962413 -30.55774689 190.09482635 -31.66810608 190.09336853 C-35.09126629 190.08779611 -38.51435975 190.07524868 -41.9375 190.0625 C-44.26627509 190.05748144 -46.59505122 190.05291915 -48.92382812 190.04882812 C-54.61590798 190.03783571 -60.30794922 190.02112514 -66 190 C-66.33 192.31 -66.66 194.62 -67 197 C-67.33 197 -67.66 197 -68 197 C-68 194.03 -68 191.06 -68 188 C-67.29034088 187.99413376 -66.58068176 187.98826752 -65.84951782 187.98222351 C-59.16879347 187.92437234 -52.48839124 187.85234008 -45.80799294 187.76428509 C-42.37332113 187.7195151 -38.93876975 187.68027428 -35.50390625 187.65356445 C-31.5570311 187.6226329 -27.61066324 187.56784148 -23.6640625 187.51171875 C-21.80933823 187.50213387 -21.80933823 187.50213387 -19.91714478 187.49235535 C-18.77611298 187.47256119 -17.63508118 187.45276703 -16.45947266 187.43237305 C-15.451315 187.42126999 -14.44315735 187.41016693 -13.40444946 187.39872742 C-12.21424698 187.20135735 -12.21424698 187.20135735 -11 187 C-10.34 186.01 -9.68 185.02 -9 184 C-7.68 184 -6.36 184 -5 184 C-5 182.35 -5 180.7 -5 179 C-3.68 179 -2.36 179 -1 179 C0.17826281 175.2803815 0.12303615 171.75847028 0.12025452 167.87530518 C0.12110894 167.15726581 0.12196337 166.43922645 0.12284368 165.69942832 C0.1244908 163.2934086 0.11898967 160.88745861 0.11352539 158.48144531 C0.11324333 156.75673932 0.11340163 155.0320332 0.1139679 153.30732727 C0.11425512 148.62381871 0.10837041 143.94033569 0.10139394 139.25683308 C0.09514802 134.36277203 0.09455562 129.46871041 0.09336853 124.574646 C0.09025888 115.30641491 0.0820504 106.0381956 0.07201904 96.7699697 C0.06084657 86.21868872 0.05534459 75.66740719 0.05032361 65.11612177 C0.0398675 43.41074127 0.02227511 21.70537138 0 0 Z " fill="#324058" transform="translate(342,87)"/>
<path d="M0 0 C0.495 1.485 0.495 1.485 1 3 C-1.80376564 7.80022134 -5.8065606 11.09220593 -11 13 C-17.13624785 14.16227102 -23.17160149 14.12870681 -29.40234375 14.09765625 C-30.48004532 14.0962413 -31.55774689 14.09482635 -32.66810608 14.09336853 C-36.09126629 14.08779611 -39.51435975 14.07524868 -42.9375 14.0625 C-45.26627509 14.05748144 -47.59505122 14.05291915 -49.92382812 14.04882812 C-55.61590798 14.03783571 -61.30794922 14.02112514 -67 14 C-67.33 16.31 -67.66 18.62 -68 21 C-68.33 21 -68.66 21 -69 21 C-69 18.03 -69 15.06 -69 12 C-68.29034088 11.99413376 -67.58068176 11.98826752 -66.84951782 11.98222351 C-60.16879347 11.92437234 -53.48839124 11.85234008 -46.80799294 11.76428509 C-43.37332113 11.7195151 -39.93876975 11.68027428 -36.50390625 11.65356445 C-32.5570311 11.6226329 -28.61066324 11.56784148 -24.6640625 11.51171875 C-22.80933823 11.50213387 -22.80933823 11.50213387 -20.91714478 11.49235535 C-19.77611298 11.47256119 -18.63508118 11.45276703 -17.45947266 11.43237305 C-16.451315 11.42126999 -15.44315735 11.41016693 -14.40444946 11.39872742 C-13.61098114 11.26714737 -12.81751282 11.13556732 -12 11 C-11.34 10.01 -10.68 9.02 -10 8 C-8.68 8 -7.36 8 -6 8 C-6 6.35 -6 4.7 -6 3 C-5.195625 2.87625 -4.39125 2.7525 -3.5625 2.625 C-2.716875 2.41875 -1.87125 2.2125 -1 2 C-0.67 1.34 -0.34 0.68 0 0 Z " fill="#A8AFB9" transform="translate(343,263)"/>
<path d="M0 0 C1.77315834 -0.00618599 1.77315834 -0.00618599 3.58213806 -0.01249695 C5.52961441 0.00368179 5.52961441 0.00368179 7.51643372 0.02018738 C8.89616884 0.02103351 10.27590531 0.02055877 11.65563965 0.01885986 C15.40339435 0.01799795 19.15086191 0.03565517 22.8985498 0.05658174 C26.81431996 0.07531601 30.73009647 0.07709641 34.64590454 0.08065796 C42.06197178 0.089988 49.47790659 0.1146147 56.89391547 0.14470643 C65.33636921 0.17822064 73.77882922 0.19472894 82.22133291 0.20979273 C99.5890636 0.24116347 116.95666532 0.29394254 134.32429504 0.36076355 C134.32429504 0.69076355 134.32429504 1.02076355 134.32429504 1.36076355 C133.61768895 1.36499549 132.91108286 1.36922743 132.18306446 1.37358761 C114.9901581 1.47689014 97.79729375 1.58552733 80.60445881 1.70010281 C72.2901378 1.75538195 63.9758125 1.8088552 55.66145325 1.858078 C48.41470436 1.9009849 41.16798638 1.94727924 33.92128533 1.9976421 C30.08419442 2.02419065 26.24710944 2.04904233 22.40998268 2.06983757 C18.79769563 2.08946782 15.18546714 2.11363044 11.57323265 2.14125443 C9.61686053 2.15503985 7.66045647 2.16403285 5.70405579 2.17288208 C3.95201591 2.18756531 3.95201591 2.18756531 2.1645813 2.20254517 C1.15153081 2.20899772 0.13848032 2.21545027 -0.90526867 2.22209835 C-3.59188672 2.3565683 -6.05753591 2.75973071 -8.67570496 3.36076355 C-6.09016309 0.02528814 -4.10872561 -0.01103507 0 0 Z " fill="#788395" transform="translate(194.6757049560547,75.63923645019531)"/>
<path d="M0 0 C2.63276353 2.63276353 2.29844863 3.89509158 2.3125 7.5625 C2.21449937 13.82700212 1.60691753 20.39308247 -3 25 C-3.69748583 26.31747324 -4.36959957 27.64914193 -5 29 C-5.99 28.01 -6.98 27.02 -8 26 C-7.505 24.515 -7.505 24.515 -7 23 C-7.93271729 23.02094727 -8.86543457 23.04189453 -9.82641602 23.06347656 C-13.31349726 23.13197396 -16.79985541 23.18195446 -20.28735352 23.21972656 C-21.79170062 23.23974363 -23.29597089 23.26696627 -24.80004883 23.30175781 C-26.97236162 23.35071945 -29.14363906 23.37306653 -31.31640625 23.390625 C-32.62037354 23.41157227 -33.92434082 23.43251953 -35.26782227 23.45410156 C-39.83155316 22.89882326 -42.18664077 21.49476133 -46 19 C-45.67 17.68 -45.34 16.36 -45 15 C-44.236875 15.804375 -43.47375 16.60875 -42.6875 17.4375 C-37.28440719 22.58928617 -30.30719157 21.18394295 -23.25 21.1875 C-21.98671875 21.19974609 -20.7234375 21.21199219 -19.421875 21.22460938 C-10.44235293 21.47430641 -10.44235293 21.47430641 -2 19 C0.23036481 14.79521388 0.22076589 10.81752873 0.125 6.125 C0.10695312 4.97257813 0.08890625 3.82015625 0.0703125 2.6328125 C0.04710937 1.76398438 0.02390625 0.89515625 0 0 Z " fill="#8F9AA8" transform="translate(240,227)"/>
<path d="M0 0 C1.07843801 3.23531403 0.86226713 4.52902842 0.3125 7.8125 C-0.15321171 11.76817474 -0.17087639 12.69811838 1.875 16.3125 C2.57625 17.199375 3.2775 18.08625 4 19 C4.75 21.875 4.75 21.875 5 24 C3.3125 24.8125 3.3125 24.8125 1 25 C-2.69893584 21.90321651 -4.67818833 19.62966104 -5.2734375 14.765625 C-5.54233745 8.10518002 -4.3743017 5.03044696 0 0 Z " fill="#454F5E" transform="translate(250,143)"/>
<path d="M0 0 C0.99 0.33 1.98 0.66 3 1 C2.10845646 3.74892592 1.25590275 5.71566361 -0.6875 7.875 C-4.10823348 9.53914061 -6.37174797 8.90706301 -10 8 C-12.4375 6.4375 -12.4375 6.4375 -14 5 C-13.67 4.34 -13.34 3.68 -13 3 C-12.01 3 -11.02 3 -10 3 C-9.01 2.67 -8.02 2.34 -7 2 C-7 2.66 -7 3.32 -7 4 C-7.66 4 -8.32 4 -9 4 C-9 4.66 -9 5.32 -9 6 C-7.35 6 -5.7 6 -4 6 C-3.67 5.34 -3.34 4.68 -3 4 C-2.01 4 -1.02 4 0 4 C-0.33 3.01 -0.66 2.02 -1 1 C-0.67 0.67 -0.34 0.34 0 0 Z " fill="#8993A0" transform="translate(265,304)"/>
<path d="M0 0 C0.33 0 0.66 0 1 0 C1.2475 1.216875 1.495 2.43375 1.75 3.6875 C2.70293754 7.62445362 4.41383183 9.87876255 7 13 C6.67 13.99 6.34 14.98 6 16 C5.01 15.67 4.02 15.34 3 15 C3 14.34 3 13.68 3 13 C2.01 12.67 1.02 12.34 0 12 C-1.1898306 9.6203388 -1.13349966 8.08514265 -1.125 5.4375 C-1.12886719 4.22900391 -1.12886719 4.22900391 -1.1328125 2.99609375 C-1 1 -1 1 0 0 Z " fill="#CED7DE" transform="translate(248,150)"/>
<path d="M0 0 C0.66 0 1.32 0 2 0 C1.67021516 7.60154046 -0.12782571 13.97319219 -3 21 C-3.33 21 -3.66 21 -4 21 C-4.125 14.25 -4.125 14.25 -3 12 C-2.34 12 -1.68 12 -1 12 C-1.020625 10.948125 -1.04125 9.89625 -1.0625 8.8125 C-1.01103198 5.67295096 -0.73482813 3.03116604 0 0 Z " fill="#87909C" transform="translate(272,284)"/>
<path d="M0 0 C1.29873047 0.00966797 2.59746094 0.01933594 3.93554688 0.02929688 C5.30729764 0.0543629 6.67904243 0.07975774 8.05078125 0.10546875 C9.43423049 0.12051855 10.81769526 0.13420645 12.20117188 0.14648438 C15.58893332 0.18189652 18.97591264 0.23128821 22.36328125 0.29296875 C22.36328125 0.62296875 22.36328125 0.95296875 22.36328125 1.29296875 C21.57155518 1.3180249 20.7798291 1.34308105 19.96411133 1.36889648 C16.36784762 1.48512604 12.77182845 1.60773051 9.17578125 1.73046875 C7.30696289 1.78944336 7.30696289 1.78944336 5.40039062 1.84960938 C4.19833984 1.89150391 2.99628906 1.93339844 1.7578125 1.9765625 C0.65284424 2.01322021 -0.45212402 2.04987793 -1.59057617 2.08764648 C-4.36264847 2.27449531 -6.93214748 2.67459241 -9.63671875 3.29296875 C-6.94488093 -0.38234367 -4.34935652 -0.05697847 0 0 Z " fill="#8E97A6" transform="translate(195.63671875,75.70703125)"/>
<path d="M0 0 C0.99217314 2.97651942 1.04648208 4.72783317 0.9375 7.8125 C0.90140125 11.92775699 1.16415278 15.23168203 3 19 C3.99 19.33 4.98 19.66 6 20 C3.50907189 21.24546405 2.58919267 20.7767578 0 20 C-1.27472414 14.26374136 -2.70914967 5.41829933 0 0 Z " fill="#A8B0BA" transform="translate(275,227)"/>
<path d="M0 0 C1.32 0.99 2.64 1.98 4 3 C3.67 5.31 3.34 7.62 3 10 C1 8.875 1 8.875 -1 7 C-1.3125 3.875 -1.3125 3.875 -1 1 C-0.67 0.67 -0.34 0.34 0 0 Z " fill="#142A47" transform="translate(251,144)"/>
<path d="M0 0 C0.33 0.66 0.66 1.32 1 2 C-1.1875 4.5625 -1.1875 4.5625 -4 7 C-6.8125 6.8125 -6.8125 6.8125 -9 6 C-6 4 -3 2 0 0 Z " fill="#293A51" transform="translate(322,244)"/>
<path d="M0 0 C0.33 0.99 0.66 1.98 1 3 C-0.21484375 4.82421875 -0.21484375 4.82421875 -1.9375 6.6875 C-2.50339844 7.31011719 -3.06929688 7.93273437 -3.65234375 8.57421875 C-4.09707031 9.04472656 -4.54179687 9.51523437 -5 10 C-5.66 9.67 -6.32 9.34 -7 9 C-6.49396008 6.83125748 -6.00016187 5.00032373 -5 3 C-3.66666667 2.66666667 -2.33333333 2.33333333 -1 2 C-0.67 1.34 -0.34 0.68 0 0 Z " fill="#939CA7" transform="translate(343,263)"/>
<path d="M0 0 C0.99 0.33 1.98 0.66 3 1 C2.25 3.4375 2.25 3.4375 1 6 C-1.125 6.8125 -1.125 6.8125 -3 7 C-3 6.01 -3 5.02 -3 4 C-2.01 4 -1.02 4 0 4 C-0.33 3.01 -0.66 2.02 -1 1 C-0.67 0.67 -0.34 0.34 0 0 Z " fill="#5C6878" transform="translate(265,304)"/>
<path d="M0 0 C1.32 0.66 2.64 1.32 4 2 C3.6875 3.875 3.6875 3.875 3 6 C2.01 6.66 1.02 7.32 0 8 C-1.125 2.25 -1.125 2.25 0 0 Z " fill="#526173" transform="translate(276,219)"/>
<path d="M0 0 C1.09658936 3.28976808 0.79953138 4.71303767 0 8 C-1.32 7.67 -2.64 7.34 -4 7 C-2.79618552 4.50638429 -1.54571278 2.31856917 0 0 Z " fill="#505D6F" transform="translate(250,143)"/>
<path d="M0 0 C0.33 0 0.66 0 1 0 C1 5.61 1 11.22 1 17 C0.67 17 0.34 17 0 17 C0 11.39 0 5.78 0 0 Z " fill="#FFFFFF" transform="translate(195,179)"/>
<path d="" fill="#FFFFFF" transform="translate(0,0)"/>
<path d="" fill="#FFFFFF" transform="translate(0,0)"/>
</svg>
